<?xml version="1.0" encoding="UTF-8"?><svg id="uuid-f328e3de-7d9f-40e7-a4a1-cb07fd96049d" xmlns="http://www.w3.org/2000/svg" width="74.32" height="61.43" viewBox="0 0 74.32 61.43"><path d="M.55,9.31l1.33-.16c.04,.34,.16,.6,.34,.78s.41,.27,.67,.27c.28,0,.52-.11,.72-.32s.29-.5,.29-.87c0-.34-.09-.62-.28-.82s-.41-.3-.68-.3c-.18,0-.39,.03-.63,.1l.15-1.12c.37,0,.65-.07,.85-.24,.2-.17,.29-.4,.29-.68,0-.24-.07-.43-.21-.58s-.33-.21-.57-.21-.43,.08-.6,.24-.27,.4-.3,.71l-1.26-.21c.09-.43,.22-.78,.4-1.04,.18-.26,.42-.46,.74-.61,.32-.15,.67-.22,1.07-.22,.67,0,1.21,.21,1.62,.64,.34,.35,.5,.75,.5,1.19,0,.63-.34,1.13-1.03,1.5,.41,.09,.74,.29,.98,.59s.37,.68,.37,1.11c0,.63-.23,1.16-.69,1.61s-1.03,.66-1.71,.66c-.65,0-1.19-.19-1.61-.56-.43-.37-.67-.86-.74-1.46Z" fill="#231f20"/><g><g><path d="M30.61,60.77L.82,30.98c-.1-.1-.03-.27,.11-.27H60.51c.14,0,.21,.17,.11,.27l-29.79,29.79c-.06,.06-.16,.06-.22,0Z" fill="#f7941e"/><g><g><path d="M24.41,35.05c.01,2.73,.02,5.46,.03,8.19v1.18c0,1.25,1.35,2.09,2.5,2.05s2.51-.73,2.5-2.05c-.01-2.73-.02-5.46-.03-8.19,0-.39,0-.79,0-1.18,0-1.25-1.35-2.09-2.5-2.05s-2.51,.73-2.5,2.05h0Z" fill="#231f20"/><circle cx="26.92" cy="50.8" r="2.41" fill="#231f20"/></g><g><path d="M31.99,35.05c.01,2.73,.02,5.46,.03,8.19v1.18c0,1.25,1.35,2.09,2.5,2.05s2.51-.73,2.5-2.05c-.01-2.73-.02-5.46-.03-8.19,0-.39,0-.79,0-1.18,0-1.25-1.35-2.09-2.5-2.05s-2.51,.73-2.5,2.05h0Z" fill="#231f20"/><circle cx="34.51" cy="50.8" r="2.41" fill="#231f20"/></g></g><path d="M30.58,.69L.88,30.39c-.12,.12-.04,.33,.14,.33H60.41c.17,0,.26-.21,.14-.33L30.85,.69c-.08-.08-.2-.08-.27,0Z" fill="#231f20"/><rect x="9.39" y="9.39" width="42.66" height="42.66" transform="translate(30.72 -12.72) rotate(45)" fill="none" stroke="#231f20" stroke-linecap="round" stroke-linejoin="round" stroke-width="1.1"/></g><g><path d="M67.55,20.91c.43-.13,.88-.21,1.35-.21,2.69,0,4.86,2.18,4.86,4.86s-2.06,4.57-4.65,4.69l-16.91-.07L34.56,12.99l-5.11,4.55-6.81-3.86-11.72,6.68L30.72,.55l21.78,21.77c.1-.78,.43-1.45,1.1-1.96,1.33-1.01,3.23-.75,4.24,.58,.01,.02,.02,.04,.03,.05-.11-1.44,.47-2.9,1.71-3.84,1.93-1.47,4.68-1.09,6.14,.84,.58,.76,.86,1.65,.88,2.54,.04,.42,.04,.91,.04,.91,0,0,.51-.39,.92-.52Z" fill="#fff" stroke="#231f20" stroke-linecap="round" stroke-linejoin="round" stroke-width="1.1"/><line x1="36.84" y1="10.99" x2="52.92" y2="26.62" fill="none" stroke="#231f20" stroke-linecap="round" stroke-linejoin="round" stroke-width="1.1"/><path d="M56.58,25.5c.87-.95,2.29-1.28,3.53-.72,1.31,.59,1.99,1.99,1.74,3.34" fill="none" stroke="#231f20" stroke-linecap="round" stroke-linejoin="round" stroke-width="1.1"/></g></g></svg>