<?xml version="1.0" encoding="UTF-8"?><svg id="uuid-83734cef-013e-4283-8fc2-870eaf66a942" xmlns="http://www.w3.org/2000/svg" width="61.43" height="61.43" viewBox="0 0 61.43 61.43"><path d="M5.36,10v1.27H.55c.05-.48,.21-.94,.47-1.37,.26-.43,.77-1,1.54-1.72,.62-.58,1-.97,1.14-1.17,.19-.28,.28-.56,.28-.84,0-.31-.08-.54-.25-.71-.16-.17-.39-.25-.68-.25s-.51,.09-.68,.26-.27,.46-.29,.86l-1.37-.14c.08-.75,.34-1.3,.77-1.63s.97-.49,1.61-.49c.71,0,1.26,.19,1.67,.57s.61,.85,.61,1.42c0,.32-.06,.63-.17,.92-.12,.29-.3,.6-.55,.92-.17,.21-.47,.52-.9,.91s-.71,.66-.82,.79-.21,.26-.28,.38h2.72Z" fill="#231f20"/><g><g><path d="M30.61,60.77L.82,30.98c-.1-.1-.03-.27,.11-.27H60.51c.14,0,.21,.17,.11,.27l-29.79,29.79c-.06,.06-.16,.06-.22,0Z" fill="#fff200"/><g><path d="M28.2,35.05c.01,2.73,.02,5.46,.03,8.19v1.18c0,1.25,1.35,2.09,2.5,2.05s2.51-.73,2.5-2.05c-.01-2.73-.02-5.46-.03-8.19,0-.39,0-.79,0-1.18,0-1.25-1.35-2.09-2.5-2.05s-2.51,.73-2.5,2.05h0Z" fill="#231f20"/><circle cx="30.72" cy="50.8" r="2.41" fill="#231f20"/></g><path d="M30.58,.69L.88,30.39c-.12,.12-.04,.33,.14,.33H60.41c.17,0,.26-.21,.14-.33L30.85,.69c-.08-.08-.2-.08-.27,0Z" fill="#231f20"/><rect x="9.39" y="9.39" width="42.66" height="42.66" transform="translate(30.72 -12.72) rotate(45)" fill="none" stroke="#231f20" stroke-linecap="round" stroke-linejoin="round" stroke-width="1.1"/></g><g><path d="M55.38,19.11c-.05,0-.11,.01-.16,.02,.4-.56,.64-1.23,.64-1.97,0-1.87-1.51-3.38-3.38-3.38-1.19,0-2.24,.62-2.84,1.56,0-.02,0-.03,0-.05,0-1.29-1.04-2.33-2.33-2.33-1.13,0-2.06,.85-2.27,1.92L30.72,.55,10.91,20.36l11.72-6.68,6.81,3.86,7-6.23,14.15,13.72c1.03,.96,1.96,1.35,3.17,1.66,2.68,.71,5.37-1.15,5.2-3.98-.12-1.98-1.61-3.59-3.59-3.59Z" fill="#fff" stroke="#231f20" stroke-linecap="round" stroke-linejoin="round" stroke-width="1.1"/><path d="M52.07,19.52c.61,.32,1.03,.96,1.03,1.7,0,.78-.47,1.45-1.14,1.75" fill="none" stroke="#231f20" stroke-linecap="round" stroke-linejoin="round" stroke-width="1.1"/></g></g></svg>